<svg width="200" height="306" viewBox="0 0 200 306" fill="none" xmlns="http://www.w3.org/2000/svg">
<g clip-path="url(#clip0)">
<path d="M2.10707 277.954H19.9229V283.045H8.17131V289.26H18.2013V294.351H8.17131V304.775H2.10707V277.954Z" fill="#FF5050"/>
<path d="M30.9208 289.106H22.7066V284.357H36.9765V304.766H30.9208V289.106ZM29.6531 277.474C29.6531 275.254 31.3405 273.711 33.6702 273.711C36 273.711 37.6874 275.254 37.6874 277.474C37.6874 279.702 36 281.177 33.6702 281.177C31.3405 281.177 29.6531 279.702 29.6531 277.474Z" fill="#FF5050"/>
<path d="M44.1285 284.357H49.0621L49.4989 287.074H49.6617C51.4347 285.343 53.6788 283.86 56.7109 283.86C61.3191 283.86 63.349 287.014 63.349 292.166V304.775H57.3019V292.946C57.3019 290.228 56.5225 289.02 54.3126 289.02C52.7024 289.02 51.5974 289.766 50.1842 291.146V304.766H44.1285V284.357Z" fill="#FF5050"/>
<path d="M67.3576 294.574C67.3576 287.897 71.6488 283.86 76.0771 283.86C78.3126 283.86 79.8373 284.657 81.2163 286.054H81.3619L81.0792 282.9V275.948H87.1349V304.766H82.2013L81.7645 302.666H81.6103C80.1114 304.149 77.9957 305.263 75.9658 305.263C70.7495 305.263 67.3576 301.243 67.3576 294.574ZM81.0792 298.414V290.177C79.9829 289.174 78.8608 288.823 77.6702 288.823C75.4604 288.823 73.5589 290.623 73.5589 294.506C73.5589 298.509 75.0407 300.309 77.5075 300.309C78.8865 300.309 80.0171 299.794 81.0792 298.414Z" fill="#FF5050"/>
<path d="M104.36 277.911H111.632L119.974 304.723H113.542L110.081 291.146C109.405 288.471 108.582 285.325 107.94 282.497H107.777C107.118 285.325 106.381 288.471 105.696 291.146L102.21 304.723H96L104.36 277.911ZM101.533 293.623H114.355V298.354H101.533V293.623Z" fill="#008DCA"/>
<path d="M128.891 277.954H136.291C144.069 277.954 149.173 282.025 149.173 291.24C149.173 300.463 144.06 304.775 136.634 304.775H128.891V277.954ZM135.957 299.889C140.128 299.889 142.964 297.66 142.964 291.248C142.964 284.845 140.128 282.848 135.957 282.848H134.955V299.889H135.957Z" fill="#FF5050"/>
<path d="M152.514 294.557C152.514 287.88 157.662 283.868 163.126 283.868C169.413 283.868 172.728 288.12 172.728 293.666C172.728 294.771 172.557 295.869 172.471 296.374H157.002V292.311H168.385L167.435 293.468C167.435 290.194 166.013 288.471 163.332 288.471C160.343 288.471 158.381 290.494 158.381 294.557C158.381 298.792 160.685 300.652 164.651 300.652C166.501 300.652 168.094 300.146 169.902 299.237L171.906 302.88C169.576 304.372 166.552 305.263 163.82 305.263C157.465 305.263 152.514 301.337 152.514 294.557Z" fill="#FF5050"/>
<path d="M175.794 284.357H181.867L185.079 293.983C185.739 296.031 186.304 298.123 186.912 300.266H187.075C187.683 298.123 188.223 296.031 188.899 293.983L192.111 284.357H197.893L190.415 304.766H183.478L175.794 284.357Z" fill="#FF5050"/>
<path d="M171.556 38.2811C152.583 12.1718 124.995 0 96.2151 0C96.2151 0 25.7311 0 4.85749 63.1475C-2.83416 86.4196 -1.12966 111.689 8.20652 134.352C11.4356 142.187 15.7269 150.69 21.3714 158.859C39.5727 185.165 96.2151 257.005 96.2151 257.005H108.532C124.344 235.027 164.147 162.022 176.069 138.621C191.033 109.237 193.337 68.2734 171.556 38.2811ZM107.967 155.096C74.7161 155.096 47.7611 128.121 47.7611 94.837C47.7611 61.5618 74.7161 34.5867 107.967 34.5867C141.217 34.5867 168.172 61.5618 168.172 94.837C168.181 128.121 141.226 155.096 107.967 155.096Z" fill="#FF4F5B"/>
<path opacity="0.4" d="M171.556 38.2811C152.583 12.1718 124.995 0 96.2151 0C96.2151 0 25.7311 0 4.85749 63.1475C-2.83416 86.4196 -1.12966 111.689 8.20652 134.352C11.4356 142.187 15.7269 150.69 21.3714 158.859C39.5727 185.165 96.2151 257.005 96.2151 257.005H108.532C124.344 235.027 164.147 162.022 176.069 138.621C191.033 109.237 193.337 68.2734 171.556 38.2811ZM107.967 155.096C74.7161 155.096 47.7611 128.121 47.7611 94.837C47.7611 61.5618 74.7161 34.5867 107.967 34.5867C141.217 34.5867 168.172 61.5618 168.172 94.837C168.181 128.121 141.226 155.096 107.967 155.096Z" fill="black"/>
<path d="M183.949 38.7783C164.976 12.6689 137.388 0.497162 108.608 0.497162C108.608 0.497162 38.1242 0.497162 17.2505 63.6447C9.55888 86.9168 11.2634 112.186 20.5996 134.85C23.8287 142.684 28.1199 151.187 33.7645 159.356C51.9657 185.663 108.608 257.502 108.608 257.502C108.608 257.502 174.056 167.396 188.463 139.118C203.435 109.726 205.73 68.7706 183.949 38.7783ZM108.051 155.593C74.6467 155.67 47.7173 128.969 47.8458 95.3342C47.9657 62.0589 74.8009 35.0839 108.051 35.0839C141.302 35.0839 168.283 62.0589 168.257 95.3342C168.231 128.721 141.225 155.516 108.051 155.593Z" fill="#FF5050"/>
<path d="M107.966 34.5867C81.773 34.5867 59.4946 51.3358 51.212 74.7107C59.3148 56.8216 77.3019 44.3756 98.2013 44.3756C126.689 44.3756 149.79 67.4848 149.79 96.0028C149.79 124.512 126.698 147.63 98.2013 147.63C81.6617 147.63 66.9465 139.83 57.5075 127.709C68.2484 144.193 86.8265 155.104 107.966 155.104C141.216 155.104 168.171 128.129 168.171 94.8456C168.18 61.5618 141.225 34.5867 107.966 34.5867Z" fill="#FF4F5B"/>
<path opacity="0.4" d="M107.966 34.5867C81.773 34.5867 59.4946 51.3358 51.212 74.7107C59.3148 56.8216 77.3019 44.3756 98.2013 44.3756C126.689 44.3756 149.79 67.4848 149.79 96.0028C149.79 124.512 126.698 147.63 98.2013 147.63C81.6617 147.63 66.9465 139.83 57.5075 127.709C68.2484 144.193 86.8265 155.104 107.966 155.104C141.216 155.104 168.171 128.129 168.171 94.8456C168.18 61.5618 141.225 34.5867 107.966 34.5867Z" fill="black"/>
<path d="M111.118 199.026L111.066 205.643C111.066 205.643 111.906 209.878 112.574 214.395C113.242 218.912 113.747 223.704 113.079 224.818C111.743 227.047 109.071 224.818 108.625 222.589C108.18 220.361 107.512 206.543 107.512 206.543L107.066 197.629L111.118 199.026Z" fill="#2D2C56"/>
<path d="M117.876 198.143L116.857 204.083C116.857 204.083 114.852 220.352 115.966 222.804C117.079 225.255 120.642 224.141 120.42 220.798C120.197 217.455 121.088 205.643 121.088 205.643L123.092 198.511L117.876 198.143Z" fill="#2D2C56"/>
<path d="M115.118 125.661L114.63 132.99L133.49 142.101C136.899 143.936 138.535 147.921 137.413 151.624L124.351 200.2L117.884 198.143L123.623 153.459C124.026 150.707 122.141 148.153 119.4 147.716L112.685 146.661L105.533 139.367L113.799 146.79C115.803 148.59 116.788 151.264 116.428 153.93L111.118 199.017L105.233 200.492L102.604 156.099C102.415 153.287 100.522 150.87 97.833 150.021L86.2099 146.336C84.3598 145.204 83.212 143.216 83.152 141.047L83.6403 125.421L115.118 125.661Z" fill="#008DCA"/>
<path d="M82.4497 142.058L85.5589 81.3966C85.5589 81.3966 98.4497 80.6252 102.287 80.6252C104.377 80.6252 107.949 81.6195 110.767 82.5195C113.413 83.3681 115.615 83.291 116.899 85.7596L138.039 126.312L125.054 127.555L120.719 122.601L122.921 119.258L115.024 100.614L116.574 134.464L82.4497 142.058Z" fill="#FF6145"/>
<path opacity="0.5" d="M115.306 93.2255L129.319 118.563L124.959 123.681C124.959 123.681 123.186 124.041 121.499 123.492L120.719 122.609L122.921 119.266L115.024 100.623L115.306 93.2255Z" fill="url(#paint0_linear)"/>
<path d="M102.852 98.9514C98.5953 98.9514 90.7752 87.8168 90.7752 83.5567C90.7752 82.691 90.9208 81.8595 91.1863 81.0881C95.1606 80.8738 100.137 80.6338 102.287 80.6338C103.229 80.6338 104.48 80.8395 105.816 81.1481C106.064 81.9109 106.201 82.7167 106.201 83.5567C106.21 87.8168 107.118 98.9514 102.852 98.9514Z" fill="#131313"/>
<path d="M84.0343 91.8712L82.4497 142.41L103.306 137.404L84.0343 91.8712Z" fill="url(#paint1_linear)"/>
<path d="M103.589 74.3936C103.229 75.1136 100.694 85.0653 100.694 85.0653C100.694 85.0653 99.7859 86.6939 97.6188 86.5139C95.4518 86.3339 94.5439 83.2567 94.5439 83.2567L98.3383 70.7678L103.589 74.3936Z" fill="#C8896E"/>
<path d="M90.2099 68.2648C90.2099 75.1222 97.4818 82.7081 104.334 82.7081C111.186 82.7081 115.015 75.1222 115.015 68.2648C115.015 61.4075 109.465 55.853 102.612 55.853C95.7602 55.853 90.2099 61.4075 90.2099 68.2648Z" fill="#EEBCC5"/>
<path d="M105.117 83.056C112.727 81.8145 117.891 74.6339 116.65 67.0178C115.41 59.4017 108.235 54.2341 100.624 55.4756C93.0137 56.7172 87.8499 63.8978 89.0906 71.5139C90.3312 79.13 97.5065 84.2976 105.117 83.056Z" fill="#C8896E"/>
<path d="M112.06 76.8536C111.777 77.3337 111.829 77.8822 112.154 78.0708C112.488 78.2594 112.976 78.028 113.259 77.548C113.542 77.0679 113.49 76.5194 113.165 76.3308C112.839 76.1336 112.343 76.3651 112.06 76.8536Z" fill="#1C1F3D"/>
<path d="M105.036 77.6079C104.728 78.1394 104.779 78.7394 105.139 78.9451C105.507 79.1594 106.047 78.8937 106.355 78.3623C106.664 77.8308 106.612 77.2308 106.253 77.0251C105.884 76.8194 105.345 77.0851 105.036 77.6079Z" fill="#1C1F3D"/>
<path d="M100.248 136.23C100.788 136.05 105.37 133.83 108.625 133.83C111.88 133.83 115.854 137.267 115.854 137.267C115.854 137.267 116.394 139.075 114.227 138.715C112.06 138.355 114.527 140.078 114.527 140.078C114.527 140.078 114.407 140.164 111.88 140.524C109.345 140.884 99.4775 140.353 99.4775 140.353L100.248 136.23Z" fill="#C8896E"/>
<path d="M85.5589 81.4052L83.8116 121.332L100.214 136.17L99.4347 140.335L76.3426 127.992C74.1071 126.801 72.8565 124.341 73.1991 121.829L77.4133 91.2798C77.7645 87.4654 80.06 84.1139 83.4947 82.4167L85.5589 81.4052Z" fill="#CE5C4D"/>
<path d="M98.561 143.764H140.334V140.695H98.561C97.7131 140.695 97.0278 141.381 97.0278 142.23C97.0278 143.078 97.7131 143.764 98.561 143.764Z" fill="white"/>
<path d="M110.021 143.764H150.304C152.086 143.764 153.645 142.564 154.099 140.841L161.208 114.038C161.867 111.543 159.991 109.1 157.413 109.1H122.244C120.463 109.1 118.904 110.3 118.45 112.023L110.021 143.764Z" fill="white"/>
<path d="M157.413 109.1C159.991 109.1 161.876 111.543 161.208 114.038L154.099 140.841C153.876 141.664 153.405 142.367 152.771 142.881L128.283 109.1H157.413Z" fill="url(#paint2_linear)"/>
<path d="M133.747 128.807C133.302 130.555 134.407 131.97 136.206 131.97C138.004 131.97 139.82 130.555 140.257 128.807C140.702 127.058 139.597 125.644 137.799 125.644C136 125.644 134.184 127.058 133.747 128.807Z" fill="#008DCA"/>
<path d="M102.869 55.2787C110.039 55.2787 115.931 60.6789 116.737 67.6391C114.313 69.4391 111.143 70.2363 108.163 69.7134C104.642 69.0963 101.49 66.6791 99.9914 63.439C100.103 64.9904 100.206 66.5505 99.9486 68.0848C99.6917 69.6191 99.0236 71.1278 97.833 72.1221C97.7473 71.0335 97.6446 69.9106 97.0707 68.9763C96.5054 68.0505 95.3234 67.3905 94.3126 67.7848C93.5846 68.0677 93.1221 68.822 93.0107 69.602C92.8994 70.3735 93.1049 71.1621 93.3876 71.8906C93.833 73.0307 94.4925 74.0936 95.3319 74.985C93.6788 75.2422 91.9401 75.4393 90.287 75.285C89.4133 73.4593 88.9079 71.4192 88.9079 69.2591C88.8994 61.5361 95.152 55.2787 102.869 55.2787Z" fill="#1C1F3D"/>
<path d="M90.8865 71.5564C90.8865 73.8964 92.7794 75.7908 95.1178 75.7908C97.4561 75.7908 99.349 73.8964 99.349 71.5564C99.349 69.2163 97.4561 67.3219 95.1178 67.3219C92.7794 67.3219 90.8865 69.2163 90.8865 71.5564Z" fill="#C8896E"/>
<path d="M117.876 198.143L117.113 202.574L121.559 203.98L122.784 199.6L117.876 198.143Z" fill="#C8896E"/>
<path d="M111.075 203.98L107.409 204.683L107.178 200.011L111.118 199.026L111.075 203.98Z" fill="#C8896E"/>
<path d="M94.9379 59.5646C97.0666 59.5646 98.7923 57.8376 98.7923 55.7073C98.7923 53.577 97.0666 51.8501 94.9379 51.8501C92.8092 51.8501 91.0835 53.577 91.0835 55.7073C91.0835 57.8376 92.8092 59.5646 94.9379 59.5646Z" fill="#1C1F3D"/>
<path d="M100.077 56.9931C102.679 56.9931 104.788 54.8824 104.788 52.2787C104.788 49.675 102.679 47.5642 100.077 47.5642C97.4753 47.5642 95.3662 49.675 95.3662 52.2787C95.3662 54.8824 97.4753 56.9931 100.077 56.9931Z" fill="#1C1F3D"/>
<path d="M104.36 58.7074C106.488 58.7074 108.214 56.9805 108.214 54.8502C108.214 52.7199 106.488 50.9929 104.36 50.9929C102.231 50.9929 100.505 52.7199 100.505 54.8502C100.505 56.9805 102.231 58.7074 104.36 58.7074Z" fill="#1C1F3D"/>
</g>
<defs>
<linearGradient id="paint0_linear" x1="129.322" y1="108.513" x2="115.027" y2="108.513" gradientUnits="userSpaceOnUse">
<stop stop-color="#FF6145"/>
<stop offset="0.8988" stop-color="#CE5C4D"/>
</linearGradient>
<linearGradient id="paint1_linear" x1="124.821" y1="133.598" x2="46.3404" y2="102.579" gradientUnits="userSpaceOnUse">
<stop stop-color="#FF6145"/>
<stop offset="0.8988" stop-color="#CE5C4D"/>
</linearGradient>
<linearGradient id="paint2_linear" x1="128.353" y1="126.278" x2="197.942" y2="124.636" gradientUnits="userSpaceOnUse">
<stop stop-color="#484EC2" stop-opacity="0"/>
<stop offset="1" stop-color="#444BCC" stop-opacity="0.5"/>
</linearGradient>
<clipPath id="clip0">
<rect width="200" height="305.263" fill="white"/>
</clipPath>
</defs>
</svg>
